Coordinates
version=1
nRows=24
nColumns=24
inDegrees=yes

Units are S.I. units (second, meters, Newtons, ...)
Angles are in degrees.

endheader
time	pelvis_tilt	pelvis_list	pelvis_rotation	pelvis_tx	pelvis_ty	pelvis_tz	hip_flexion_r	hip_adduction_r	hip_rotation_r	knee_angle_r	ankle_angle_r	subtalar_angle_r	mtp_angle_r	hip_flexion_l	hip_adduction_l	hip_rotation_l	knee_angle_l	ankle_angle_l	subtalar_angle_l	mtp_angle_l	lumbar_extension	lumbar_bending	lumbar_rotation
      4.71500000	     -9.65191158	      5.34637136	     -4.38899546	     -1.11522726	     -0.01973449	     -0.72377333	     15.46351372	     -8.02256376	     -4.84719558	    -59.40783006	    -15.20946547	    -18.12224264	      0.85519624	     27.08458272	      5.30241952	    -13.82803685	    -23.76836387	      1.75002080	     -9.48959813	      3.94577313	      7.39570616	     -5.55656449	      3.63477166
      4.72000000	     -9.78596693	      5.28413992	     -4.27075070	     -1.11033555	     -0.01918619	     -0.72440147	     16.47307392	     -8.02159799	     -4.93542608	    -60.49123345	    -14.54625464	    -18.46176417	     -0.71818138	     26.78975187	      5.38406971	    -13.63267181	    -23.59012733	      2.08296044	     -9.37109529	      3.73873933	      7.46960658	     -5.47708553	      3.38681778
      4.72500000	     -9.78175961	      5.24189760	     -4.21427098	     -1.10542975	     -0.01839725	     -0.72496647	     17.30403004	     -8.03504834	     -4.96133713	    -61.37565424	    -14.21073171	    -19.08807842	     -0.95669637	     26.29824376	      5.48447508	    -13.51018463	    -23.30244755	      2.23577246	     -9.41383121	      3.68123156	      7.40836042	     -5.41778034	      3.15572807
      4.73000000	     -9.91296490	      5.15735179	     -4.11731274	     -1.10060752	     -0.01779906	     -0.72557694	     18.29659769	     -7.99755388	     -5.02238415	    -62.27958422	    -13.56981047	    -19.29810715	     -2.16929279	     25.98163257	      5.54479014	    -13.28451950	    -23.08655569	      2.54704153	     -9.35092994	      3.31439771	      7.47896899	     -5.30513557	      2.93038403
      4.73500000	     -9.88392155	      5.08250461	     -4.05306717	     -1.09571603	     -0.01694344	     -0.72610977	     19.06088398	     -7.96374835	     -5.03588027	    -62.97854126	    -13.17736222	    -19.68422900	     -2.15589885	     25.43454861	      5.61602464	    -13.10572365	    -22.75682888	      2.72155753	     -9.31491492	      3.31711315	      7.39024570	     -5.21450120	      2.72550533
      4.74000000	    -10.05991471	      5.00621049	     -3.95835850	     -1.09092958	     -0.01637086	     -0.72674525	     20.08018340	     -7.93130280	     -5.08600260	    -63.68100884	    -12.70024663	    -19.93166041	     -2.43706772	     25.14814447	      5.68756410	    -12.89685363	    -22.47575537	      2.86499891	     -9.43224003	      3.09614908	      7.51620207	     -5.09749758	      2.48982911
      4.74500000	    -10.03501585	      4.92484353	     -3.88827614	     -1.08604928	     -0.01551647	     -0.72725309	     20.82179067	     -7.88730688	     -5.11927272	    -64.22162280	    -12.23331571	    -20.14532753	     -2.40744924	     24.59405282	      5.74540601	    -12.73955776	    -22.12559568	      3.04661709	     -9.35126603	      3.07773018	      7.44036977	     -4.99714934	      2.29214775
      4.75000000	    -10.11269273	      4.86493091	     -3.78338956	     -1.08121234	     -0.01482924	     -0.72783682	     21.67746161	     -7.87248852	     -5.14940698	    -64.73379544	    -11.60505811	    -20.08746070	     -2.42590508	     24.17052108	      5.83225653	    -12.59673653	    -21.79207126	      3.20504822	     -9.35573829	      2.90277586	      7.47196244	     -4.91349214	      2.04358624
      4.75500000	    -10.10499745	      4.77274892	     -3.72628255	     -1.07634202	     -0.01397865	     -0.72830156	     22.41608718	     -7.79438917	     -5.16415100	    -65.11552589	    -11.14505551	    -20.19430535	     -2.35236102	     23.61412886	      5.87096885	    -12.42722953	    -21.40283101	      3.37306091	     -9.28618842	      2.86409190	      7.42311942	     -4.79708248	      1.88112753
      4.76000000	    -10.13162484	      4.70962811	     -3.62943091	     -1.07148649	     -0.01322344	     -0.72883289	     23.17511470	     -7.76695092	     -5.18236810	    -65.44727448	    -10.49334489	    -19.98933880	     -2.15622699	     23.11047649	      5.94793798	    -12.31431567	    -21.02573434	      3.52336161	     -9.25646528	      2.71693903	      7.40999491	     -4.71159823	      1.64452339
      4.76500000	    -10.12411271	      4.64082358	     -3.55087905	     -1.06660513	     -0.01240358	     -0.72930494	     23.87536410	     -7.71667774	     -5.18711234	    -65.67586223	     -9.91515380	    -19.84037535	     -1.86610036	     22.54561916	      6.01363658	    -12.17986462	    -20.61222019	      3.67514830	     -9.19140514	      2.58707387	      7.36825097	     -4.62157365	      1.44674414
      4.77000000	    -10.09472765	      4.56604378	     -3.46701295	     -1.06173237	     -0.01157350	     -0.72976866	     24.53035880	     -7.66115307	     -5.20378132	    -65.81744044	     -9.35474231	    -19.67473397	     -1.49651710	     21.94873496	      6.07257560	    -12.04779894	    -20.18302455	      3.84635811	     -9.09648702	      2.51669447	      7.30206017	     -4.52583211	      1.26690577
      4.77500000	     -9.97557261	      4.52181683	     -3.43619266	     -1.05682768	     -0.01059837	     -0.73019759	     25.05918614	     -7.61908390	     -5.13434054	    -65.81018646	     -8.94412263	    -19.58626707	     -0.18796384	     21.22023786	      6.16658045	    -11.92519818	    -19.68670411	      3.93271349	     -9.10859884	      2.20152932	      7.15399975	     -4.45555394	      1.11063861
      4.78000000	     -9.96970830	      4.40856389	     -3.31300149	     -1.05193922	     -0.00980432	     -0.73063338	     25.67814125	     -7.52539593	     -5.20572568	    -65.77561174	     -8.37464239	    -19.37790902	      0.15687372	     20.65087831	      6.17494192	    -11.80297461	    -19.27111031	      4.13591461	     -8.90041709	      2.24779336	      7.11737339	     -4.33056127	      0.87318568
      4.78500000	     -9.86433862	      4.32587533	     -3.23721433	     -1.04702053	     -0.00886762	     -0.73100936	     26.15914505	     -7.44211836	     -5.19341973	    -65.62391089	     -7.78670617	    -19.08925501	      0.81441971	     19.94844417	      6.20682479	    -11.77193286	    -18.79477227	      4.22338415	     -8.76002276	      2.25990207	      6.98393120	     -4.23567068	      0.64624101
      4.79000000	     -9.74171308	      4.23319065	     -3.15625898	     -1.04208572	     -0.00794018	     -0.73139416	     26.59677488	     -7.35559391	     -5.20445358	    -65.38629784	     -7.27623903	    -18.86763257	      1.57866746	     19.21411494	      6.23579507	    -11.67229220	    -18.30157318	      4.33638988	     -8.62413266	      2.30175882	      6.83605939	     -4.12695342	      0.44902715
      4.79500000	     -9.60669835	      4.13693390	     -3.08402221	     -1.03715490	     -0.00701907	     -0.73176909	     26.99842031	     -7.26516745	     -5.22275312	    -65.06001341	     -6.81574704	    -18.70427740	      2.39495043	     18.46493947	      6.25591701	    -11.58691819	    -17.80394477	      4.44015205	     -8.49530595	      2.35755693	      6.67448632	     -4.01328289	      0.25307892
      4.80000000	     -9.42618862	      4.06251175	     -3.03869571	     -1.03223661	     -0.00607607	     -0.73211091	     27.33635952	     -7.19151676	     -5.22875815	    -64.62437261	     -6.57746547	    -18.83593371	      3.75328138	     17.65091399	      6.29776964	    -11.49012512	    -17.26966728	      4.50691569	     -8.40965308	      2.46057559	      6.46606222	     -3.92116727	      0.10973079
      4.80500000	     -9.41088780	      3.93722728	     -2.95192894	     -1.02733127	     -0.00537128	     -0.73246921	     27.83859784	     -7.06208906	     -5.27573140	    -64.19228269	     -6.09301598	    -18.63280441	      4.01278659	     17.05566196	      6.27142917	    -11.38800850	    -16.81923954	      4.65629438	     -8.26628370	      2.50451175	      6.43478832	     -3.76950808	     -0.08801160
      4.81000000	     -9.23977694	      3.84199218	     -2.86142315	     -1.02238792	     -0.00449674	     -0.73282947	     28.12414211	     -6.98536664	     -5.33345635	    -63.64615491	     -5.63169941	    -18.49184725	      4.40283960	     16.26864056	      6.28691451	    -11.32642535	    -16.32118892	      4.74147615	     -8.10008818	      2.54178801	      6.23830551	     -3.66236053	     -0.31756393
      4.81500000	     -9.09366951	      3.73386995	     -2.78238850	     -1.01746263	     -0.00370188	     -0.73317998	     28.42020202	     -6.88741351	     -5.39651328	    -63.02717432	     -5.25122013	    -18.46511322	      4.74314123	     15.51084312	      6.28429124	    -11.23714164	    -15.82812748	      4.85124346	     -7.96261625	      2.58377287	      6.06832746	     -3.52830458	     -0.51610341
      4.82000000	     -8.98756826	      3.64031002	     -2.70317084	     -1.01255149	     -0.00302671	     -0.73354061	     28.75133146	     -6.80778501	     -5.46267190	    -62.35931518	     -4.89577900	    -18.47534102	      4.96297594	     14.80212997	      6.29350661	    -11.12147146	    -15.34526938	      4.98772161	     -7.81952928	      2.62572357	      5.94204864	     -3.40828968	     -0.69297688
      4.82500000	     -8.85357511	      3.54040049	     -2.60753797	     -1.00764242	     -0.00233731	     -0.73388051	     29.01180842	     -6.73023031	     -5.55609798	    -61.60007944	     -4.55699517	    -18.52525369	      5.12046452	     14.06824192	      6.29292829	    -11.03883386	    -14.86710139	      5.09185377	     -7.66507116	      2.65548468	      5.78374380	     -3.28793283	     -0.91774324
      4.83000000	     -8.74292708	      3.44648091	     -2.51064679	     -1.00276926	     -0.00173822	     -0.73422374	     29.28115566	     -6.66033503	     -5.65516618	    -60.77908140	     -4.24812171	    -18.62502713	      5.17366178	     13.37114207	      6.29404675	    -10.95640973	    -14.40457414	      5.20394182	     -7.51348143	      2.68411597	      5.64628543	     -3.16818100	     -1.13591251
